<svg xmlns="http://www.w3.org/2000/svg" width="900" height="520" viewBox="0 0 900 520">
<rect width="100%" height="100%" fill="white"/>
<text x="450" y="32" text-anchor="middle" font-family="Arial" font-size="22" font-weight="bold">Stronger model: validation vs untouched final test</text>
<line x1="90" y1="70" x2="90" y2="410" stroke="black"/><line x1="90" y1="410" x2="870" y2="410" stroke="black"/>
<g font-family="Arial" font-size="13">
<line x1="85" y1="410" x2="870" y2="410" stroke="#ddd"/><text x="80" y="415" text-anchor="end">0.0</text>
<line x1="85" y1="342" x2="870" y2="342" stroke="#ddd"/><text x="80" y="347" text-anchor="end">0.2</text>
<line x1="85" y1="274" x2="870" y2="274" stroke="#ddd"/><text x="80" y="279" text-anchor="end">0.4</text>
<line x1="85" y1="206" x2="870" y2="206" stroke="#ddd"/><text x="80" y="211" text-anchor="end">0.6</text>
<line x1="85" y1="138" x2="870" y2="138" stroke="#ddd"/><text x="80" y="143" text-anchor="end">0.8</text>
<line x1="85" y1="70" x2="870" y2="70" stroke="#ddd"/><text x="80" y="75" text-anchor="end">1.0</text>
</g>
<g font-family="Arial" font-size="12">
<rect x="143" y="85" width="56" height="325" fill="#4C78A8"/><text x="171" y="80" text-anchor="middle">95.6%</text>
<rect x="203" y="113" width="56" height="297" fill="#F58518"/><text x="231" y="108" text-anchor="middle">87.4%</text>
<rect x="338" y="89" width="56" height="321" fill="#4C78A8"/><text x="366" y="84" text-anchor="middle">94.5%</text>
<rect x="398" y="117" width="56" height="293" fill="#F58518"/><text x="426" y="112" text-anchor="middle">86.1%</text>
<rect x="533" y="78" width="56" height="332" fill="#4C78A8"/><text x="561" y="73" text-anchor="middle">97.6%</text>
<rect x="593" y="75" width="56" height="335" fill="#F58518"/><text x="621" y="70" text-anchor="middle">98.5%</text>
<rect x="728" y="381" width="56" height="29" fill="#4C78A8"/><text x="756" y="376" text-anchor="middle">8.6%</text>
<rect x="788" y="321" width="56" height="89" fill="#F58518"/><text x="816" y="316" text-anchor="middle">26.3%</text>
</g>
<g font-family="Arial" font-size="13">
<text x="201" y="438" text-anchor="middle">Accuracy</text><text x="396" y="438" text-anchor="middle">Balanced accuracy</text><text x="591" y="438" text-anchor="middle">Attack recall</text><text x="786" y="438" text-anchor="middle">FPR</text>
<rect x="90" y="475" width="14" height="14" fill="#4C78A8"/><text x="110" y="487">Validation</text>
<rect x="270" y="475" width="14" height="14" fill="#F58518"/><text x="290" y="487">Final test</text>
</g></svg>